<?xml version="1.0" encoding="utf-8"?>
<!-- Generator: Adobe Illustrator 15.0.0, SVG Export Plug-In . SVG Version: 6.00 Build 0)  -->
<!DOCTYPE svg PUBLIC "-//W3C//DTD SVG 1.1//EN" "http://www.w3.org/Graphics/SVG/1.1/DTD/svg11.dtd">
<svg version="1.1" id="Livello_1" xmlns="http://www.w3.org/2000/svg" xmlns:xlink="http://www.w3.org/1999/xlink" x="0px" y="0px"
	 width="3000px" height="3000px" viewBox="0 0 3000 3000" enable-background="new 0 0 3000 3000" xml:space="preserve">
<path fill="#AE97B7" d="M554.517,564.756c0,0,111.584-53.571,307.98-22.348c0,0,151.799,26.81,276.776-62.496
	c0,0,147.287-147.27,223.17-142.823c0,0,75.864-13.406,214.244,75.899c0,0,80.33,26.776,223.202,4.462
	c0,0,267.835-62.496,352.642,147.304c0,0,4.448,205.318,223.174,383.895c0,0,120.507,89.271,232.097,142.827
	c0,0,129.465,75.899,116.091,191.947c0,0-22.326,62.492-84.807,124.957c0,0-125.022,129.453-102.691,218.741
	c0,0-8.923,138.394,84.842,241.054c0,0,156.181,209.766,227.649,312.46c0,0,71.404,147.288,0,281.202
	c0,0-75.914,120.546-236.606,111.621c0,0-254.431-49.108-392.788-22.367c0,0-218.727,8.957-348.196,71.469
	c0,0-276.721,66.928-383.864,66.928c0,0-254.425-13.37-415.117-93.732c0,0-272.279-133.918-321.399-138.396
	c0,0-165.175-26.744-276.743-4.445c0,0-232.128-13.405-294.607-102.662c0,0-151.767-156.246-22.329-419.597
	c0,0,129.452-183.021,227.65-281.204c0,0,151.767-178.576,174.095-424.076c0,0,22.296-124.99-58.034-321.384
	C500.946,903.991,393.841,720.985,554.517,564.756z"/>
</svg>
