<?xml version="1.0" encoding="utf-8"?>
<!-- Generator: Adobe Illustrator 15.0.0, SVG Export Plug-In . SVG Version: 6.00 Build 0)  -->
<!DOCTYPE svg PUBLIC "-//W3C//DTD SVG 1.1//EN" "http://www.w3.org/Graphics/SVG/1.1/DTD/svg11.dtd">
<svg version="1.1" id="Livello_1" xmlns="http://www.w3.org/2000/svg" xmlns:xlink="http://www.w3.org/1999/xlink" x="0px" y="0px"
	 width="3000px" height="3000px" viewBox="0 0 3000 3000" enable-background="new 0 0 3000 3000" xml:space="preserve">
<g>
	<path fill="#AE97B7" d="M2814.458,2076.812c-69.668-100.108-221.921-304.595-221.921-304.595
		c-91.406-100.076-82.706-234.987-82.706-234.987c-21.766-87.041,100.111-213.237,100.111-213.237
		c60.903-60.889,82.673-121.813,82.673-121.813c13.035-113.126-113.177-187.116-113.177-187.116
		c-108.776-52.206-226.254-139.231-226.254-139.231c-132.389-108.087-184.237-226.209-204.53-300.247l-997.129,1934.64
		c151.247,52.931,335.744,62.634,335.744,62.634c104.444,0,374.204-65.24,374.204-65.24c126.211-60.939,339.43-69.672,339.43-69.672
		c134.881-26.071,382.902,21.8,382.902,21.8c156.649,8.702,230.653-108.81,230.653-108.81
		C2884.066,2220.393,2814.458,2076.812,2814.458,2076.812z"/>
	<path fill="#AE97B7" d="M794.105,2352.833l1030.916-2000.19c-20.546,2.42-33.156,5.361-33.156,5.361
		c-139.278,21.751-217.584-4.351-217.584-4.351c-134.897-87.058-208.854-73.99-208.854-73.99
		c-73.974-4.334-217.554,139.23-217.554,139.23c-121.829,87.058-269.81,60.923-269.81,60.923
		c-191.45-30.437-300.227,21.784-300.227,21.784c-156.633,152.298-52.222,330.698-52.222,330.698
		c78.309,191.452,56.572,313.296,56.572,313.296c-21.769,239.322-169.715,413.405-169.715,413.405
		c-95.725,95.709-221.92,274.125-221.92,274.125c-126.179,256.724,21.769,409.038,21.769,409.038
		c60.905,87.009,287.192,100.076,287.192,100.076c108.762-21.736,269.776,4.335,269.776,4.335
		C774.858,2347.08,783.403,2349.313,794.105,2352.833z"/>
</g>
</svg>
