<?xml version="1.0" encoding="utf-8"?>
<!-- Generator: Adobe Illustrator 15.0.0, SVG Export Plug-In . SVG Version: 6.00 Build 0)  -->
<!DOCTYPE svg PUBLIC "-//W3C//DTD SVG 1.1//EN" "http://www.w3.org/Graphics/SVG/1.1/DTD/svg11.dtd">
<svg version="1.1" id="Livello_1" xmlns="http://www.w3.org/2000/svg" xmlns:xlink="http://www.w3.org/1999/xlink" x="0px" y="0px"
	 width="3000px" height="3000px" viewBox="0 0 3000 3000" enable-background="new 0 0 3000 3000" xml:space="preserve">
<path d="M110.21,962.324h304.406c226.25,0,323.948,164.537,323.948,367.13c0,202.597-97.698,367.143-323.948,367.143H110.21V962.324
	z M238.761,1591.699h126.491c201.573,0,244.759-114.151,244.759-262.245c0-148.093-43.187-262.248-244.759-262.248H238.761V1591.699
	z"/>
<path d="M839.268,962.324h117.241v111.06H839.268V962.324z M839.268,1164.92h117.241v531.677H839.268V1164.92z"/>
<path d="M1172.445,1525.886c7.197,68.898,57.592,92.547,120.326,92.547c45.243,0,121.356-9.26,118.275-69.929
	c-3.099-61.713-88.456-68.897-173.815-88.437c-86.376-18.511-170.708-49.359-170.708-157.345
	c0-116.208,125.459-152.213,222.133-152.213c109.015,0,208.765,44.235,222.139,163.522h-122.388
	c-11.313-56.553-55.525-70.964-107.982-70.964c-33.932,0-96.669,8.234-96.669,54.507c0,57.589,86.389,66.853,172.782,85.355
	c85.355,19.548,171.735,50.397,171.735,155.303c0,126.48-127.524,172.762-237.556,172.762
	c-134.724,0-232.424-59.639-235.506-185.107H1172.445z"/>
<path d="M1564.219,1164.92h88.437v-159.414h117.247v159.414h105.912v87.417h-105.912v283.837c0,48.323,4.099,72.998,56.551,72.998
	c16.462,0,32.923,0,49.361-4.1v90.488c-25.713,3.103-50.389,6.156-76.093,6.156c-123.41,0-143.986-47.292-147.066-135.724v-313.656
	h-88.437V1164.92z"/>
<path d="M1960.112,1164.92h110.043v102.837h2.05c13.375-56.553,84.33-117.249,155.295-117.249c27.761,0,32.89,2.059,44.223,3.087
	v113.134c-16.462-3.091-33.942-5.148-50.388-5.148c-79.195,0-143.978,63.765-143.978,182.048v252.968h-117.245V1164.92z"/>
<g>
	<path fill="#AE97B7" d="M2395.64,1674.418l258.083-500.736c-5.141,0.607-8.299,1.342-8.299,1.342
		c-34.866,5.445-54.47-1.09-54.47-1.09c-33.767-21.794-52.286-18.523-52.286-18.523c-18.518-1.084-54.462,34.856-54.462,34.856
		c-30.495,21.793-67.55,15.251-67.55,15.251c-47.92-7.62-75.15,5.454-75.15,5.454c-39.216,38.126-13.076,82.788-13.076,82.788
		c19.602,47.927,14.161,78.431,14.161,78.431c-5.449,59.912-42.486,103.492-42.486,103.492
		c-23.96,23.96-55.557,68.626-55.557,68.626c-31.588,64.269,5.449,102.399,5.449,102.399c15.247,21.78,71.896,25.054,71.896,25.054
		c27.232-5.444,67.532,1.084,67.532,1.084C2390.818,1672.975,2392.969,1673.541,2395.64,1674.418z"/>
	<path fill="#AE97B7" d="M2901.424,1605.314c-17.441-25.062-55.557-76.254-55.557-76.254
		c-22.883-25.052-20.705-58.826-20.705-58.826c-5.45-21.791,25.063-53.386,25.063-53.386c15.246-15.241,20.696-30.495,20.696-30.495
		c3.264-28.317-28.333-46.84-28.333-46.84c-27.232-13.069-56.642-34.856-56.642-34.856c-33.146-27.063-46.122-56.635-51.2-75.169
		l-249.621,484.317c37.863,13.252,84.046,15.691,84.046,15.691c26.147,0,93.68-16.334,93.68-16.334
		c31.597-15.255,84.975-17.441,84.975-17.441c33.766-6.527,95.854,5.458,95.854,5.458c39.218,2.177,57.744-27.24,57.744-27.24
		C2918.849,1641.258,2901.424,1605.314,2901.424,1605.314z"/>
</g>
</svg>
